<?xml version="1.0" encoding="utf-8"?>
<!-- Generator: Adobe Illustrator 24.0.1, SVG Export Plug-In . SVG Version: 6.00 Build 0)  -->
<svg version="1.1" id="Layer_1" xmlns:serif="http://www.serif.com/"
	 xmlns="http://www.w3.org/2000/svg" xmlns:xlink="http://www.w3.org/1999/xlink" x="0px" y="0px" viewBox="0 0 841.9 595.3"
	 style="enable-background:new 0 0 841.9 595.3;" xml:space="preserve">
<style type="text/css">
	.st0{fill-rule:evenodd;clip-rule:evenodd;fill:url(#SVGID_1_);}
</style>
<g transform="matrix(1.89459,0,0,1.89459,-349.116,-709.396)">
	<linearGradient id="SVGID_1_" gradientUnits="userSpaceOnUse" x1="267.332" y1="422.1244" x2="723.1967" y2="877.989">
		<stop  offset="0" style="stop-color:#FFD166"/>
		<stop  offset="1" style="stop-color:#D62828"/>
	</linearGradient>
	<path class="st0" d="M369.3,378.7c-53.8,0-59.4,36.8-73.4,48.6c-10.6,8.9-23.7-0.4-34.7,3.5c-12.8,4.5-11.6,17.6-5.5,27.8
		c18.8,31.1,51.8,29.2,50.1,41.7c-1.2,9-48.6,21.9-48.6,88.8c0,62.9,63.9,85.2,84.3,89.2c31.4,6.2,83.6,11,128.2-2.9
		c52.3-16.3,102.8-55.8,90.1-144.4c-3.3-23-23.5-55.5-30.3-55.6c-9.5-0.1-13.1,24-37.8,34.3c-29.6,12.4-77.3,6.3-77.3-3.6
		c0-12.5,22.8-18.9,22.8-58S407.2,380.4,369.3,378.7z"/>
</g>
</svg>
